<svg width="720" height="720" viewBox="0 0 720 720" fill="none" xmlns="http://www.w3.org/2000/svg">
<path d="M100.4 2.66662C98 4.13329 96 5.86662 96 6.66662C96 7.33329 103.867 16.6666 113.333 27.3333C122.933 38 130.667 46.4 130.667 46C130.667 43.6 107.467 -4.30899e-05 106.133 -4.30899e-05C105.333 -4.30899e-05 102.667 1.19996 100.4 2.66662Z" fill="#D94E06"/>
<path d="M2.93333 17.7333C1.33333 19.4666 0 21.2 0 21.6C0 22.1333 6.4 27.0666 14.4 32.8C22.2667 38.4 31.7333 45.3333 35.3333 48C47.4667 56.9333 46.2667 55.2 26 34.8C15.0667 23.7333 6 14.6666 5.86667 14.6666C5.86667 14.6666 4.53333 16 2.93333 17.7333Z" fill="#D94E06"/>
<path d="M608.933 54.9333C607.867 56.6666 600 71.2 591.333 87.3333C582.667 103.467 573.2 120.8 570.267 125.733C567.467 130.8 561.333 141.867 556.8 150.4C552.133 159.067 541.2 178.933 532.4 194.667C523.6 210.4 509.6 235.6 501.333 250.667C493.2 265.733 485.733 278.8 485.067 279.6C484.267 280.533 482.267 281.333 480.533 281.333C477.333 281.333 472.133 277.333 440.533 250.533C429.6 241.333 418 232 414.8 229.867C405.333 223.733 399.067 224.4 367.333 235.6C336 246.667 334.4 247.067 331.6 244.933C328.533 242.667 322 188.267 324.4 185.733C325.733 184.4 333.6 184.667 362 187.2C446.533 194.667 448 194.8 456.267 187.467C461.2 183.067 463.733 177.467 473.733 150C485.067 118.667 486.267 113.067 483.467 108.533C480.4 104 476 102.533 470.267 104.133C462.267 106.267 457.467 113.2 448.133 136.133C443.333 147.867 438.4 153.067 430.933 154.8C426.267 155.867 418.133 154.133 367.067 141.2C306.667 126 292.8 123.6 283.6 126.533C277.6 128.533 271.2 135.733 269.467 142.267C268 147.867 264 208.933 264 226.133C264 234.4 263.467 237.467 261.867 238.8C260.133 240.267 254.4 239.6 227.6 235.333C209.867 232.533 193.733 229.733 191.733 229.067C187.2 227.467 187.2 227.867 190.133 186.533C192.4 154.267 192.133 144.133 188.8 137.067C185.867 131.067 153.867 91.0666 150.533 89.2C147.333 87.6 104.133 80.6666 103.2 81.7333C102.267 82.6666 104 86 114.533 102.667C145.2 151.733 144 149.6 144 155.733C144 158.933 139.6 181.733 134.133 206.4C116.133 288.4 116.8 284.8 118.267 295.333C120.8 311.867 124.133 317.867 153.6 359.6C190.667 412.133 192.533 414.533 201.333 418.267C207.333 420.8 213.2 420.267 249.333 413.333C313.067 401.2 342.933 394.8 346 392.8C347.867 391.6 349.333 389.467 349.333 388.133C349.333 384.933 343.2 379.733 334.133 374.933L327.333 371.467L277.2 370.667C234.8 370 226.533 369.467 223.867 367.733C220.933 365.867 213.6 354.4 204.533 337.6C200.8 330.8 200.8 330.533 203.2 328.667C204.667 327.6 207.067 327.067 208.533 327.333C212.533 328.267 273.867 335.6 291.333 337.2C315.733 339.6 320.667 338 354 317.333C393.2 293.067 399.733 289.333 402.933 289.333C404.8 289.333 415.867 295.467 429.467 304.133C454.133 320 458.667 323.333 458.667 326.267C458.667 329.333 453.6 338.667 383.333 464.667C367.333 493.2 351.867 521.067 349.067 526.4L343.733 536L347.067 540.4C348.933 542.667 354.933 549.733 360.667 555.867C376.267 573.067 376.4 574.4 362.667 568.667C354 565.067 334.8 560 329.467 560C327.6 560 322.667 562.667 318.133 566.267C310.4 572.4 309.733 572.667 301.733 572.533C292.267 572.4 293.067 571.467 288.8 587.867C287.2 594.133 285.333 599.333 284.533 599.6C283.867 599.867 280.933 593.733 278.133 586C272.533 570.533 273.067 570.933 261.467 573.467C253.333 575.2 251.467 574.4 240.667 564C225.733 549.6 205.2 532 203.467 532C202.533 532 192.267 541.733 180.533 553.733C156.667 578 45.8666 691.467 31.4666 706.267C23.5999 714.4 22.3999 716.133 23.9999 717.867C25.4666 719.733 59.0666 720 360.667 720C582.933 720 698 719.6 702.8 718.667C712.4 716.8 716.933 712.4 718.667 702.667C719.467 697.867 719.867 619.333 719.6 479.067L719.333 262.667L698.8 221.733C652.267 128.8 612.933 52 611.867 52C611.2 52 609.867 53.3333 608.933 54.9333Z" fill="#D94E06"/>
<path d="M13.3334 92.9331C19.0667 97.3331 54.4001 121.333 56.4001 122.133C58.5334 122.933 64.8001 113.6 63.0667 112C62.2667 111.2 21.4667 94.5331 11.3334 90.7998C10.6667 90.5331 11.4667 91.4664 13.3334 92.9331Z" fill="#D94E06"/>
<path d="M61.2001 200C52.1334 201.467 42.4 207.067 35.7334 214.4C17.4667 234.8 24.1334 267.467 49.2 279.6C55.4667 282.667 58.4001 283.333 67.3334 283.333C76.4001 283.333 79.2001 282.8 85.6001 279.6C90.0001 277.467 95.7334 273.067 99.2001 269.2C124.533 240.933 98.9334 194 61.2001 200Z" fill="#D94E06"/>
<path d="M293.333 463.467C293.333 465.6 294.267 472.4 295.333 478.667C298.133 494.8 298.133 496 293.733 496H290L295.6 501.6C298.667 504.667 301.467 506.933 301.733 506.667C302.533 505.733 306.8 462.4 306.267 461.867C306 461.6 302.933 460.933 299.6 460.533C293.333 459.6 293.333 459.733 293.333 463.467Z" fill="#D94E06"/>
<path d="M246.8 510.8C245.2 514.533 244.133 518.267 244.4 519.067C244.8 520.4 276 535.067 276.8 534.267C277.333 533.867 251.6 504.133 250.533 504.133C250.133 504 248.533 507.067 246.8 510.8Z" fill="#D94E06"/>
</svg>
